<!-- Generated by IcoMoon.io -->
<svg version="1.1" xmlns="http://www.w3.org/2000/svg" width="768" height="768" viewBox="0 0 768 768">
<title></title>
<g id="icomoon-ignore">
</g>
<path fill="#000" d="M274.909 144.002c-36.151 0-68.901 14.685-92.574 38.333s-38.333 56.423-38.333 92.574v218.182c0 36.151 14.685 68.901 38.333 92.574s56.423 38.333 92.574 38.333h218.182c36.151 0 68.901-14.685 92.574-38.333s38.333-56.423 38.333-92.574v-218.182c0-36.151-14.685-68.901-38.333-92.574s-56.423-38.333-92.574-38.333zM274.909 187.639h218.182c24.11 0 45.882 9.752 61.699 25.571s25.571 37.591 25.571 61.7v218.182c0 24.109-9.752 45.882-25.571 61.699s-37.591 25.571-61.699 25.571h-218.182c-24.11 0-45.882-9.752-61.7-25.571s-25.57-37.591-25.57-61.699v-218.182c0-24.11 9.752-45.882 25.57-61.7s37.591-25.571 61.7-25.571zM492.85 367.051c-3.272-21.208-12.458-40.516-26.048-56.007-16.452-18.785-39.357-31.965-65.65-35.87-10.123-1.613-21.165-1.681-32.224-0.043-29.805 4.406-55.005 20.531-71.608 42.915s-24.721 51.206-20.288 80.989 20.531 55.005 42.915 71.608 51.206 24.721 80.989 20.288 55.005-20.531 71.608-42.915 24.721-51.206 20.288-80.989zM449.695 373.469c2.659 17.892-2.182 35.104-12.176 48.589s-25.092 23.105-42.957 25.745-35.104-2.182-48.589-12.175-23.104-25.092-25.745-42.957 2.182-35.105 12.175-48.59 25.092-23.104 42.957-25.745c6.829-1.005 13.415-0.916 18.983-0.043 16.146 2.401 29.805 10.253 39.664 21.514 8.183 9.338 13.745 21.008 15.71 33.665zM503.999 285.818c12.042 0 21.818-9.774 21.818-21.818s-9.774-21.818-21.818-21.818-21.818 9.774-21.818 21.818 9.774 21.818 21.818 21.818z"></path>
</svg>
